<?xml version="1.0" standalone="no"?>
<!DOCTYPE svg PUBLIC "-//W3C//DTD SVG 20010904//EN"
 "http://www.w3.org/TR/2001/REC-SVG-20010904/DTD/svg10.dtd">
<svg version="1.0" xmlns="http://www.w3.org/2000/svg"
 width="16.000000pt" height="16.000000pt" viewBox="0 0 16.000000 16.000000"
 preserveAspectRatio="xMidYMid meet">
<metadata>
Created by potrace 1.11, written by Peter Selinger 2001-2013
</metadata>
<g transform="translate(0.000000,16.000000) scale(0.003125,-0.003125)"
fill="#000000" stroke="none">
<path d="M2315 4830 c-347 -37 -701 -152 -970 -313 -453 -272 -801 -664 -998
-1127 -78 -184 -147 -416 -171 -571 -3 -20 -10 -48 -16 -63 -19 -52 -54 -196
-68 -286 -19 -127 -2 -507 30 -625 5 -22 12 -51 14 -64 3 -13 14 -51 26 -85
55 -163 145 -280 224 -292 53 -8 108 1 124 21 10 13 14 13 27 0 15 -15 32 -18
93 -17 67 2 113 12 146 31 l32 19 28 -61 c87 -196 239 -414 394 -565 292 -285
628 -454 1045 -524 157 -26 488 -15 650 22 28 7 61 14 74 16 40 8 201 65 286
101 296 126 594 368 775 628 19 28 38 52 41 55 24 21 169 294 169 320 0 13 27
13 35 0 9 -15 80 -31 151 -34 48 -2 73 2 99 15 19 11 35 15 35 11 0 -16 51
-32 104 -32 61 0 110 29 159 94 69 90 134 281 161 471 13 97 15 384 2 450 -3
17 -9 46 -12 65 -3 19 -8 46 -11 60 -8 47 -32 135 -57 208 -14 40 -28 92 -31
115 -23 159 -108 412 -206 612 -185 380 -472 710 -819 943 -47 31 -94 62 -105
68 -11 6 -51 28 -90 50 -185 105 -503 220 -691 250 -21 3 -41 7 -44 9 -3 2
-34 6 -69 10 -34 4 -72 9 -84 11 -39 9 -410 12 -482 4z m450 -565 c82 -11 197
-35 246 -51 25 -8 54 -16 65 -19 42 -9 207 -81 359 -157 217 -109 277 -131
338 -124 44 5 128 41 135 59 10 21 44 -2 122 -82 232 -236 411 -535 510 -853
l18 -58 -82 0 c-72 0 -87 -3 -123 -27 -23 -14 -45 -35 -50 -46 -8 -17 -16 -5
-48 68 -136 304 -383 598 -659 784 -72 49 -232 141 -251 145 -5 1 -24 9 -40
18 -61 32 -289 106 -378 122 -118 21 -150 26 -212 31 -317 27 -628 -24 -918
-152 -44 -19 -95 -44 -114 -54 -18 -11 -50 -28 -70 -40 -123 -70 -298 -206
-399 -311 -107 -111 -215 -253 -288 -378 -34 -58 -116 -229 -116 -241 0 -5
-18 9 -39 30 -42 42 -91 57 -178 53 l-42 -2 16 53 c41 140 143 363 225 495 73
117 186 260 283 357 l93 94 69 -34 c112 -57 138 -51 452 105 274 136 426 186
645 214 96 13 346 13 431 1z"/>
</g>
</svg>
