<?xml version="1.0" encoding="UTF-8"?>
<svg width="44px" height="45px" viewBox="0 0 44 45" version="1.1" xmlns="http://www.w3.org/2000/svg" xmlns:xlink="http://www.w3.org/1999/xlink">
    <!-- Generator: Sketch 44.1 (41455) - http://www.bohemiancoding.com/sketch -->
    <title>Buffer</title>
    <desc>Created with Sketch.</desc>
    <defs></defs>
    <g id="Page-1" stroke="none" stroke-width="1" fill="none" fill-rule="evenodd">
        <g id="buffer" fill-rule="nonzero" fill="#FFFFFF">
            <path d="M43.541913,21.892424 L39.324111,19.934906 C38.712671,19.65084 38.006401,19.649434 37.393546,19.929281 L22.959604,26.527467 C22.350995,26.805908 21.650387,26.805908 21.041778,26.527467 L6.60642,19.929281 C5.993565,19.649434 5.287295,19.65084 4.675855,19.934906 L0.458053,21.892424 C-0.154802,22.176489 -0.151972,23.042747 0.462299,23.324 L21.041778,32.731901 C21.650387,33.010341 22.350995,33.010341 22.959604,32.731901 L43.537667,23.324 C44.151938,23.042747 44.154768,22.176489 43.541913,21.892424 L43.541913,21.892424 Z M43.541913,33.951693 L39.324111,31.994175 C38.712671,31.71011 38.006401,31.708704 37.393546,31.98855 L22.959604,38.586737 C22.350995,38.865177 21.650387,38.865177 21.041778,38.586737 L6.60642,31.98855 C5.993565,31.708704 5.287295,31.71011 4.675855,31.994175 L0.458053,33.951693 C-0.154802,34.235758 -0.151972,35.102017 0.462299,35.383269 L21.041778,44.79117 C21.650387,45.06961 22.350995,45.06961 22.959604,44.79117 L43.537667,35.383269 C44.151938,35.102017 44.154768,34.235758 43.541913,33.951693 L43.541913,33.951693 Z M20.879576,0.246799 L0.458619,9.726419 C-0.154236,10.010484 -0.151405,10.876743 0.462865,11.157995 L21.040928,20.565896 C21.649537,20.844336 22.350146,20.844336 22.958755,20.565896 L43.538233,11.157995 C44.152504,10.876743 44.153919,10.010484 43.542479,9.726419 L23.121522,0.246799 C22.411006,-0.082266 21.590092,-0.082266 20.879576,0.246799 L20.879576,0.246799 Z" id="Buffer"></path>
        </g>
    </g>
</svg>