<?xml version="1.0" encoding="UTF-8"?>
<svg width="188px" height="30px" viewBox="0 0 188 30" version="1.1" xmlns="http://www.w3.org/2000/svg" xmlns:xlink="http://www.w3.org/1999/xlink">
    <!-- Generator: Sketch 43.2 (39069) - http://www.bohemiancoding.com/sketch -->
    <title>Ds Logo</title>
    <desc>Created with Sketch.</desc>
    <defs></defs>
    <g id="Symbols" stroke="none" stroke-width="1" fill="none" fill-rule="evenodd">
        <g id="Footer" transform="translate(-722.000000, -39.000000)" fill="#000000">
            <g id="Group" transform="translate(530.000000, 35.000000)">
                <g id="Ds-Logo/Black" transform="translate(191.991614, 4.775510)">
                    <path d="M99.7948325,12.0805378 C98.8204423,11.5420784 97.7138407,11.2168081 96.5560358,11.2168081 C95.6863447,11.2168081 94.105922,11.4347 94.105922,12.5139703 C94.105922,14.9186189 101.244572,14.0541054 101.244572,18.3492405 C101.244572,20.8628351 98.7409626,22.5636459 95.344735,22.5636459 C94.1578894,22.5636459 93.0245398,22.3755378 91.9194667,21.914673 L90.9978081,19.2678351 C92.5254992,20.2671595 94.1303772,20.7805378 95.9484748,20.7805378 C97.0298569,20.7805378 98.8456618,20.4035378 98.8456618,19.0256459 C98.8456618,16.2965108 91.7085398,17.1610243 91.7085398,13.0555649 C91.7085398,10.1900514 94.6057268,9.4337 96.8708976,9.4337 C97.8452878,9.4337 98.8456618,9.51521351 99.7948325,9.78561892 L99.7948325,12.0805378 Z" id="Fill-1"></path>
                    <path d="M146.479818,14.0002595 C146.190176,12.109773 144.978875,11.2170432 143.082826,11.2170432 C141.31746,11.2170432 139.999932,12.2978811 139.682777,14.0002595 L146.479818,14.0002595 Z M139.578842,15.5662595 C139.63081,18.8636378 141.870761,20.7799892 144.847428,20.7799892 C146.42785,20.7799892 147.956306,20.3222595 149.168371,19.3488 L149.246322,19.3488 L147.928793,21.8882595 C146.795444,22.375773 145.533704,22.5638811 144.294127,22.5638811 C139.816517,22.5638811 136.734387,19.6732865 136.734387,15.9181784 C136.734387,12.1630703 139.394663,9.43393514 143.318972,9.43393514 C146.903964,9.43393514 149.351021,12.080773 149.246322,15.5662595 L139.578842,15.5662595 Z" id="Fill-3"></path>
                    <path d="M161.232315,16.4311649 C161.232315,13.8101919 159.862055,11.2174351 157.04282,11.2174351 C154.592706,11.2174351 153.013047,13.1886514 153.013047,15.6215162 C153.013047,18.1061108 154.462023,20.7803811 157.149811,20.7803811 C159.573941,20.7803811 161.232315,18.8640297 161.232315,16.4311649 M150.353535,16.1066784 C150.353535,12.0545162 153.541893,9.43354324 157.33399,9.43354324 C159.019876,9.43354324 160.47038,9.89284054 161.73212,11.0285432 C163.075633,12.2426243 163.891828,14.0265162 163.891828,15.8629216 C163.891828,19.7544081 160.731746,22.5634892 157.016836,22.5634892 C153.408153,22.5634892 150.353535,19.9440838 150.353535,16.1066784" id="Fill-5"></path>
                    <path d="M186.158517,12.0805378 C185.184127,11.5420784 184.076761,11.2168081 182.917428,11.2168081 C182.050793,11.2168081 180.468078,11.4347 180.468078,12.5139703 C180.468078,14.9186189 187.607493,14.0541054 187.607493,18.3492405 C187.607493,20.8628351 185.103883,22.5636459 181.706127,22.5636459 C180.522338,22.5636459 179.388989,22.3755378 178.280859,21.914673 L177.359964,19.2678351 C178.88842,20.2671595 180.494826,20.7805378 182.311395,20.7805378 C183.392013,20.7805378 185.210111,20.4035378 185.210111,19.0256459 C185.210111,16.2965108 178.070696,17.1610243 178.070696,13.0555649 C178.070696,10.1900514 180.970176,9.4337 183.234582,9.4337 C184.208972,9.4337 185.210111,9.51521351 186.158517,9.78561892 L186.158517,12.0805378 Z" id="Fill-7"></path>
                    <path d="M113.665106,22.2131378 L113.665106,20.3822189 C113.649821,20.0397054 113.665106,19.6658405 113.665106,19.2676784 L113.665106,9.43354324 L113.585626,9.43354324 C113.113333,9.89284054 112.29561,9.78624595 111.610862,9.78624595 L110.268114,9.78624595 L110.268114,9.86697568 C111.425919,10.5684622 111.267724,11.5419216 111.267724,12.8124351 L111.267724,16.9719757 C111.267724,19.0505703 110.003691,20.5107595 108.267366,20.5107595 C105.97239,20.5107595 105.286878,18.9706243 105.286878,16.4844622 L105.286878,9.43354324 L105.208163,9.43354324 C104.839041,9.75646216 104.182569,9.78624595 103.60252,9.78624595 L101.889886,9.78624595 L101.889886,9.86697568 C103.048455,10.5418135 102.891789,11.5419216 102.891789,12.7834351 L102.891789,16.9437595 C102.891789,20.7545162 104.366748,22.5634892 107.474862,22.5634892 C109.318943,22.5634892 110.320846,21.9419486 111.267724,20.4574622 L111.267724,22.2131378 L113.665106,22.2131378 Z" id="Fill-10"></path>
                    <path d="M173.742034,15.5938486 L173.742034,19.2400108 C173.742034,19.6264162 173.758083,19.9900919 173.742034,20.3286865 L173.742034,22.2129027 L176.136359,22.2129027 L176.136359,20.2503081 C176.124896,19.9383622 176.139416,19.5997676 176.139416,19.2400108 L176.139416,15.3226595 C176.139416,14.0537135 176.217367,12.3772 175.480652,11.2971459 C174.638473,10.0289838 172.952587,9.43409189 171.475335,9.43409189 C169.765758,9.43409189 168.682847,10.2178757 167.762717,11.5142541 L167.762717,9.43409189 L167.682473,9.43409189 C167.131465,9.75701081 166.49792,9.78601081 165.9194,9.78601081 L164.364197,9.78601081 L164.364197,9.86674054 C165.521237,10.5423622 165.364571,11.5416865 165.364571,12.7832 L165.364571,19.2141459 C165.364571,19.6123081 165.381384,19.986173 165.364571,20.3302541 L165.364571,22.2129027 L167.762717,22.2129027 L167.762717,20.3514162 C167.746668,20.0104703 167.762717,19.6397405 167.762717,19.2400108 L167.762717,14.4597135 C167.762717,12.8647135 168.157059,11.2172 170.555205,11.2172 C172.952587,11.2172 173.742034,12.7024703 173.742034,15.5938486" id="Fill-12"></path>
                    <path d="M121.810397,9.43377838 C120.49134,9.43377838 119.279275,10.272427 118.701519,11.4880757 L118.701519,9.43377838 L118.622039,9.43377838 C118.253681,9.7566973 117.622429,9.7856973 117.015633,9.7856973 L115.329746,9.7856973 L115.329746,9.86721081 C116.461567,10.5420486 116.304137,11.5139405 116.304137,12.7570216 L116.304137,19.2146162 C116.304137,19.6119946 116.32095,19.9858595 116.304137,20.3299405 L116.304137,22.213373 L118.701519,22.213373 L118.701519,20.3299405 C118.683941,19.9858595 118.701519,19.6119946 118.701519,19.2146162 L118.701519,15.4312919 C118.701519,12.650427 119.543698,11.5695892 121.546738,11.5695892 C121.994576,11.5695892 122.468397,11.6761838 122.758803,12.0006703 L122.758803,9.51529189 L121.810397,9.43377838 Z" id="Fill-14"></path>
                    <path d="M126.191255,13.594573 C126.191255,12.0270054 127.427011,11.2173568 128.875987,11.2173568 C130.746052,11.2173568 132.16828,12.4863027 132.16828,14.2161135 C132.16828,15.7821135 131.010475,16.8370865 129.430052,16.8370865 C127.717418,16.8370865 126.191255,15.3502486 126.191255,13.594573 M129.719694,19.8617081 C129.375792,19.8617081 128.138507,19.9447892 128.138507,19.3491135 C128.138507,18.8898162 128.850003,18.6460595 129.217597,18.6201946 C131.617272,18.4046541 134.830849,17.458627 134.830849,14.4042216 C134.830849,13.0263297 134.066621,11.8647622 132.96002,11.1358432 C133.855694,11.2722216 134.750605,11.4877622 135.673792,11.4877622 C136.253076,11.4877622 136.305044,11.3255189 136.515207,10.8387892 L137.121239,9.43346486 L129.19467,9.43346486 C126.478605,9.43346486 123.530215,10.8928703 123.530215,14.0264378 C123.530215,16.0533027 125.109873,17.8089784 127.005922,18.1867622 C126.452621,18.4579514 124.92493,18.8357351 124.92493,19.6195189 C124.92493,20.5921946 125.688393,21.5640865 126.848491,21.5382216 L128.665824,21.4841405 C130.271467,21.4841405 134.040637,21.6189514 134.040637,23.9961676 C134.040637,25.8027892 132.185093,26.4964378 130.551938,26.7049243 C130.493093,26.7182486 130.422784,26.7260865 130.337954,26.7292216 C130.237841,26.738627 130.139255,26.7472486 130.04067,26.7535189 C128.542784,26.9768973 128.565711,28.5311405 130.153776,28.5350595 C133.853402,28.3132486 136.70015,26.6430054 136.70015,23.8064919 C136.70015,21.1306541 134.276784,19.8617081 129.719694,19.8617081" id="Fill-16"></path>
                    <path d="M69.2133463,16.9715838 C69.2133463,17.9975568 68.8961919,20.7799892 71.7146634,20.7799892 C72.0837854,20.7799892 72.4269236,20.6451784 72.7685333,20.5111514 L71.3715252,22.4290703 C71.1086309,22.5098 70.8197528,22.5638811 70.5301106,22.5638811 C66.446078,22.5638811 66.8152,18.2420973 66.8152,17.1871243 L66.8152,11.5689622 L65.0246146,11.5689622 L65.0246146,10.5955027 C67.499948,10.1636378 68.157948,8.27158378 68.157948,5.75955676 L69.2133463,5.75955676 L69.2133463,9.78585405 L71.6879154,9.78585405 C72.0318179,9.78585405 72.4269236,9.78585405 72.6898179,9.62361081 L72.7685333,9.62361081 L72.7685333,12.080773 L72.6898179,12.080773 C72.2687285,11.5140973 71.4777528,11.5689622 70.7922407,11.5689622 L69.2133463,11.5689622 L69.2133463,16.9715838 Z" id="Fill-18"></path>
                    <path d="M84.8038959,22.5636459 C83.065278,22.4547 81.3258959,21.914673 81.3258959,19.7545649 L81.3258959,15.4852946 C80.5631967,15.8905108 79.667522,16.1068351 78.7978309,16.3223757 C77.5330341,16.6209973 76.1108065,16.9180514 76.1108065,18.5647811 C76.1108065,20.2412946 77.5872943,20.7805378 78.982774,20.7805378 C79.6155545,20.7805378 80.2468065,20.5916459 80.8780585,20.4035378 L79.3259122,22.4288351 C78.8765463,22.5103486 78.4034894,22.5636459 77.955652,22.5636459 C75.2946114,22.5636459 73.4512943,20.8338351 73.4512943,18.5929973 C73.4512943,13.5665919 81.3258959,15.8905108 81.3258959,12.9458351 C81.3258959,11.6502405 79.7737496,11.2168081 78.7978309,11.2168081 C77.4543187,11.2168081 76.4004488,11.7301865 75.2151317,12.2976459 L76.9812618,9.59594324 L78.6916033,9.4337 C81.5368228,9.4337 83.6980585,10.2723486 83.723278,13.540727 L83.723278,17.5928892 C83.723278,19.7271324 83.776774,20.5383486 85.9639935,20.7805378 L84.8038959,22.5636459 Z" id="Fill-20"></path>
                    <path d="M60.7814699,12.7571784 L60.7814699,19.2139892 C60.7814699,19.6121514 60.7975187,19.9860162 60.7814699,20.3300973 L60.7814699,22.2127459 L63.178852,22.2127459 L63.178852,20.3300973 C63.162039,19.9860162 63.178852,19.6121514 63.178852,19.2139892 L63.178852,9.35242162 L63.0993724,9.35242162 C62.651535,9.75685405 61.993535,9.78585405 61.3875024,9.78585405 L59.7795675,9.78585405 L59.7795675,9.86658378 C60.939665,10.5422054 60.7814699,11.5140973 60.7814699,12.7571784" id="Fill-22"></path>
                    <path d="M86.8898553,7.4345027 L86.8898553,19.2139892 C86.8898553,19.6184216 86.9074325,19.997773 86.8898553,20.3473405 L86.8898553,22.2127459 L89.2864732,22.2127459 L89.2864732,20.4602054 C89.2635463,20.0792865 89.2864732,19.6615297 89.2864732,19.2139892 L89.2864732,4.00388108 L89.208522,4.00388108 C88.8134163,4.46317838 88.1286683,4.43574595 87.5226358,4.43574595 L85.9169935,4.43574595 L85.9169935,4.51647568 C87.0488146,5.1920973 86.8898553,6.19298919 86.8898553,7.4345027" id="Fill-24"></path>
                    <path d="M40.6921415,12.7571784 L40.6921415,19.2139892 C40.6921415,19.6121514 40.7081902,19.9860162 40.6921415,20.3300973 L40.6921415,22.2127459 L43.0902878,22.2127459 L43.0902878,20.3300973 C43.0727106,19.9860162 43.0902878,19.6121514 43.0902878,19.2139892 L43.0902878,9.35242162 L43.0108081,9.35242162 C42.5622065,9.75685405 41.9042065,9.78585405 41.298174,9.78585405 L39.6910033,9.78585405 L39.6910033,9.86658378 C40.851865,10.5422054 40.6921415,11.5140973 40.6921415,12.7571784" id="Fill-26"></path>
                    <path d="M35.0783545,22.2131378 L37.4757366,22.2131378 L37.4757366,20.3563541 C37.4589236,20.0114892 37.4757366,19.6399757 37.4757366,19.2402459 L37.4757366,4.00427297 L37.3962569,4.00427297 C37.1066146,4.43535405 36.4738341,4.43535405 35.8678016,4.43535405 L34.076452,4.43535405 L34.076452,4.51686757 C35.2365496,5.22070541 35.0783545,6.19338108 35.0783545,7.43489459 L35.0783545,11.0011108 C33.9725171,10.0002189 32.4960293,9.43354324 31.0210699,9.43354324 C27.412387,9.43354324 24.7780943,12.3774351 24.7780943,16.0251649 C24.7780943,20.0498946 27.5965659,22.5634892 31.4421593,22.5634892 C31.9167447,22.5634892 32.3645821,22.5634892 32.8124195,22.4286784 L34.3676228,19.9981649 C33.6561268,20.4574622 32.9453951,20.7803811 32.1016878,20.7803811 C29.3351837,20.7803811 27.439135,18.3765162 27.439135,15.6473811 C27.439135,13.1886514 29.1510049,11.2174351 31.2587447,11.2174351 C32.6549886,11.2174351 33.9985008,11.8648405 34.657265,13.1627865 C35.1578341,14.161327 35.0783545,15.350327 35.0783545,16.4311649 L35.0783545,22.2131378 Z" id="Fill-28"></path>
                    <path d="M47.6776407,13.594573 C47.6776407,12.0270054 48.9164537,11.2173568 50.3661935,11.2173568 C52.2354943,11.2173568 53.657722,12.4863027 53.657722,14.2161135 C53.657722,15.7821135 52.4991528,16.8370865 50.9179659,16.8370865 C49.2060959,16.8370865 47.6776407,15.3502486 47.6776407,13.594573 M51.2076081,19.8617081 C50.8659984,19.8617081 49.6271854,19.9447892 49.6271854,19.3491135 C49.6271854,18.8898162 50.3379171,18.6460595 50.7078033,18.6201946 C53.1051854,18.4046541 56.3187626,17.458627 56.3187626,14.4042216 C56.3187626,13.0263297 55.554535,11.8647622 54.4479333,11.1358432 C55.3436081,11.2722216 56.2392829,11.4877622 57.1617057,11.4877622 C57.7425187,11.4877622 57.7929577,11.3255189 58.005413,10.8387892 L58.6114455,9.43346486 L50.6818195,9.43346486 C47.9680472,9.43346486 45.0181285,10.8928703 45.0181285,14.0264378 C45.0181285,16.0533027 46.5985512,17.8089784 48.4946,18.1867622 C47.9420634,18.4579514 46.4136081,18.8357351 46.4136081,19.6195189 C46.4136081,20.5921946 47.1778358,21.5640865 48.3371691,21.5382216 L50.1537382,21.4841405 C51.7616732,21.4841405 55.5270228,21.6189514 55.5270228,23.9961676 C55.5270228,25.8443297 53.587413,26.5270054 51.9282748,26.7182486 C51.9061122,26.7198162 51.885478,26.7229514 51.861787,26.7245189 C51.7288114,26.738627 51.5973642,26.7503838 51.468974,26.7597892 C49.9955431,26.9988432 50.0314618,28.5350595 51.6157057,28.5350595 C51.6195268,28.5350595 51.6225837,28.536627 51.6271691,28.536627 C55.3359659,28.3179514 58.1903561,26.6477081 58.1903561,23.8064919 C58.1903561,21.1306541 55.7654618,19.8617081 51.2076081,19.8617081" id="Fill-30"></path>
                    <path d="M17.9504081,0.00156756757 L10.0826846,0.609783784 C9.9374813,0.620756757 9.80221301,0.667783784 9.68452195,0.744594595 C9.56224553,0.819837838 9.45983902,0.925648649 9.37577398,1.05105405 C9.2932374,1.17802703 9.23057073,1.32381081 9.19465203,1.48448649 C9.15873333,1.64359459 9.14803415,1.81602703 9.17096098,1.99394595 L10.2393512,10.7762432 C10.2576927,10.9275135 10.2477577,11.0795676 10.2141317,11.2198649 C10.1812699,11.3656486 10.1239528,11.502027 10.0467659,11.6227297 C9.97110732,11.7434324 9.87557886,11.8523784 9.76476585,11.9378108 C9.65471707,12.024027 9.52785528,12.0882973 9.39182276,12.1251351 L1.0571561,14.3064054 C0.880619512,14.3526486 0.718603252,14.4318108 0.577985366,14.5344865 C0.435074797,14.6387297 0.315091057,14.7657027 0.221091057,14.9067838 C0.127091057,15.0494324 0.0598390244,15.206973 0.0254487805,15.37 C-0.00894146341,15.5338108 -0.00894146341,15.7038919 0.0285056911,15.8692703 L2.15611545,25.2895676 C2.18668455,25.4259459 2.24935122,25.5427297 2.33418049,25.6367838 C2.41900976,25.7277027 2.5252374,25.7982432 2.64827805,25.8429189 C2.77055447,25.886027 2.90735122,25.9040541 3.05255447,25.8962162 C3.19546504,25.886027 3.34831057,25.849973 3.50039187,25.7833514 L11.8067821,22.1262162 C11.9229447,22.0737027 12.0307008,22.000027 12.1262293,21.9114595 C12.2217577,21.8228919 12.3050585,21.7194324 12.3723106,21.6065676 C12.4380341,21.4937027 12.4884732,21.373 12.5198065,21.2491622 C12.5503756,21.1245405 12.5595463,20.9991351 12.5473187,20.8784324 L11.7700992,13.8651351 C11.7548146,13.7248378 11.7655138,13.582973 11.7976114,13.4473784 C11.8304732,13.3125676 11.8854976,13.1808919 11.9558065,13.0641081 C12.0291724,12.9473243 12.118587,12.8438649 12.2202293,12.7615676 C12.3226358,12.6777027 12.4365057,12.6157838 12.5587821,12.5812973 L18.4555626,10.9079189 C18.5533837,10.8797027 18.6473837,10.8271892 18.7306846,10.7566486 C18.8132211,10.6845405 18.886587,10.5944054 18.9477252,10.4925135 C19.0080992,10.3890541 19.0562455,10.2730541 19.0868146,10.1523514 C19.1189122,10.0308649 19.1341967,9.90310811 19.1280829,9.773 L18.7818878,1.04791892 C18.775774,0.899 18.749026,0.755567568 18.7039366,0.627027027 C18.6596114,0.497702703 18.5984732,0.382486486 18.5228146,0.288432432 C18.4471561,0.192027027 18.3592699,0.116783784 18.2629772,0.0681891892 C18.1666846,0.018027027 18.0604569,-0.00705405405 17.9504081,0.00156756757" id="Fill-32"></path>
                </g>
            </g>
        </g>
    </g>
</svg>