<?xml version="1.0" encoding="UTF-8"?>
<svg width="58px" height="53px" viewBox="0 0 58 53" version="1.1" xmlns="http://www.w3.org/2000/svg" xmlns:xlink="http://www.w3.org/1999/xlink">
    <!-- Generator: Sketch 44.1 (41455) - http://www.bohemiancoding.com/sketch -->
    <title>Group</title>
    <desc>Created with Sketch.</desc>
    <defs></defs>
    <g id="Page-1" stroke="none" stroke-width="1" fill="none" fill-rule="evenodd">
        <g id="emojitunes" fill-rule="nonzero">
            <g id="Group">
                <path d="M28.8,9.5 C40.8,9.5 50.5,19.2 50.5,31.2 C50.5,43.2 40.6,53 28.7,53 C16.8,53 7,43.3 7,31.3 L7,31.3 C7.1,19.2 16.8,9.5 28.8,9.5 L28.8,9.5" id="Shape" fill="#5CBB61"></path>
                <path d="M43,21.8 C43.2,21.9 43.3,22.2 43.2,22.4 C43.1,22.5 43,22.6 42.9,22.6 C40.8,22.8 38.8,23.3 36.9,24.3 C39.4,24.7 41.8,25.9 43.4,27.8 C43.6,28 43.5,28.3 43.4,28.4 C43.3,28.5 43.2,28.5 43,28.5 C39.4,27.1 35.4,26.6 31.6,27 C31.2,27 30.9,26.8 31,26.5 C32.1,21.3 38.9,19.3 43,21.8 Z M14.4,21.8 C14.2,21.9 14.1,22.2 14.2,22.4 C14.3,22.5 14.4,22.6 14.5,22.6 C16.6,22.8 18.6,23.3 20.5,24.3 C18,24.7 15.6,25.9 14,27.8 C13.8,28 13.9,28.3 14,28.4 C14.1,28.5 14.2,28.5 14.4,28.5 C18,27.1 22,26.6 25.9,27 C26.3,27 26.6,26.8 26.5,26.5 C25.3,21.3 18.7,19.3 14.4,21.8 Z" id="Shape" fill="#000000"></path>
                <path d="M41.5,32.7 C41.2,32.3 40.7,32.4 40.1,32.4 L17.3,32.4 C16.7,32.4 16.2,32.3 15.9,32.7 C13.1,36.3 16.4,46.8 28.7,46.8 C41,46.8 44.4,36.3 41.5,32.7 Z" id="Shape" fill="#333333"></path>
                <path d="M30.1,37.9 C29.6,37.9 29.1,38.3 29.3,39.3 C29.4,39.9 30.1,40.4 30.1,41.3 C30.1,42 29.4,42.7 28.7,42.7 C28,42.7 27.3,42 27.3,41.3 C27.3,40.5 28,39.8 28.1,39.3 C28.3,38.3 27.7,37.9 27.3,37.9 C25.6,38.1 24.3,39.5 24.3,41.3 C24.4,43.7 26.5,45.5 28.9,45.4 C31.1,45.3 32.9,43.5 33,41.3 C33.1,39.6 31.7,38.1 30.1,37.9 Z" id="Shape" fill="#000000"></path>
                <path d="M23.1,44.4 C26.7,45.9 30.7,45.9 34.2,44.4 C32.4,43.6 30.6,43.2 28.6,43.2 C26.8,43.2 24.8,43.6 23.1,44.4 Z" id="Shape" fill="#F16F7F"></path>
                <path d="M39.5,33.8 L17.9,33.8 C16.4,33.8 16.4,36.7 17.9,36.7 L39.6,36.7 C41,36.7 41,33.8 39.5,33.8 Z" id="Shape" fill="#FFFFFF"></path>
                <path d="M4.6,31.3 C4.9,39.8 4.6,40.4 6.8,40.2 C9,40 10.1,39.5 9.8,31 C9.5,22.5 8.3,22 6.2,22.1 C4,22.2 4.2,22.8 4.6,31.3 Z" id="Shape" fill="#979797"></path>
                <path d="M51.4,22.1 C49.2,22 48,22.4 47.8,30.9 C47.5,39.4 48.5,40 50.8,40.1 C53,40.2 52.7,39.7 53,31.2 C53.3,22.7 53.6,22.3 51.4,22.1 Z" id="Shape" fill="#979797"></path>
                <path d="M56.2,24.1 C53.7,8.9 39.4,-1.3 24.2,1.2 C12.3,3.2 3.2,12.5 1.3,24.3 C0.5,26.5 0.1,29.1 0.3,31.5 C0.5,36.9 2.4,40.4 4.1,40.3 C6.3,40.2 5.4,39.7 5.1,31.2 C5,28.5 5,26.5 5,25.2 C6.9,12 19.1,3 32.3,4.8 C43.1,6.4 51.4,14.9 52.7,25.7 C52.7,27 52.7,28.8 52.6,31.1 C52.3,39.6 51.4,40.1 53.6,40.2 C55.4,40.3 57.2,36.8 57.4,31.4 C57.5,29 57.1,26.4 56.2,24.1 Z" id="Shape" fill="#000000"></path>
                <path d="M15,11.5 C17.8,11 21.4,7.3 28.8,7.3 C36.2,7.3 39.7,11 42.6,11.5 C43.7,11.7 45.6,10.1 45.6,10.1 C41.2,5.4 36,3.1 28.9,3.1 C21.8,3.1 16.6,5.4 12.2,10.1 C12,10.1 13.9,11.7 15,11.5 Z" id="Shape" fill="#979797"></path>
            </g>
        </g>
    </g>
</svg>