<?xml version="1.0" encoding="utf-8"?>
<!-- Generator: Adobe Illustrator 21.0.2, SVG Export Plug-In . SVG Version: 6.00 Build 0)  -->
<svg version="1.1" id="Layer_1" xmlns="http://www.w3.org/2000/svg" xmlns:xlink="http://www.w3.org/1999/xlink" x="0px" y="0px"
	 viewBox="0 0 61.2 55.8" style="enable-background:new 0 0 61.2 55.8;" xml:space="preserve">
<style type="text/css">
	.st0{fill:#2ED566;}
	.st1{fill:#333333;}
	.st2{fill:#FF717F;}
	.st3{fill:#FFFFFF;}
	.st4{fill:#999999;}
</style>
<title>Emoji_Tunes</title>
<path class="st0" d="M30.6,9.3c12.8,0,23.2,10.4,23.2,23.2S43.3,55.8,30.5,55.8c-12.8,0-23.2-10.4-23.2-23.2c0,0,0,0,0,0
	C7.4,19.7,17.8,9.3,30.6,9.3C30.6,9.3,30.6,9.3,30.6,9.3"/>
<path d="M45.8,22.4c0.2,0.1,0.3,0.4,0.2,0.6c-0.1,0.1-0.2,0.2-0.3,0.2c-2.2,0.2-4.4,0.8-6.4,1.8c2.7,0.4,5.2,1.7,7,3.7
	c0.2,0.2,0.1,0.5,0,0.6c-0.1,0.1-0.2,0.1-0.4,0.1c-3.9-1.5-8.1-2-12.2-1.6c-0.4,0-0.7-0.2-0.6-0.5C34.2,21.9,41.4,19.8,45.8,22.4z
	 M15.3,22.4c-0.2,0.1-0.3,0.4-0.2,0.6c0.1,0.1,0.2,0.2,0.3,0.2c2.2,0.2,4.4,0.8,6.4,1.8c-2.7,0.4-5.2,1.7-7,3.7
	c-0.2,0.2-0.1,0.5,0,0.6c0.1,0.1,0.2,0.1,0.4,0.1c3.9-1.5,8.1-2,12.3-1.6c0.4,0,0.7-0.2,0.6-0.5C26.9,21.9,19.8,19.8,15.3,22.4z"/>
<path class="st1" d="M44.2,34.1c-0.3-0.4-0.9-0.3-1.5-0.3H18.4c-0.6,0-1.2-0.1-1.5,0.3c-3,3.9,0.5,15.1,13.7,15.1
	S47.3,37.9,44.2,34.1z"/>
<path d="M32,39.7c-0.5,0-1.1,0.4-0.9,1.5c0.1,0.6,0.9,1.2,0.9,2.1c0,0.8-0.7,1.5-1.5,1.5c-0.8,0-1.5-0.7-1.5-1.5
	c0-0.9,0.8-1.6,0.9-2.1c0.2-1.1-0.4-1.5-0.9-1.5c-1.8,0.2-3.2,1.7-3.2,3.6c0.1,2.6,2.3,4.5,4.9,4.4c2.4-0.1,4.3-2,4.4-4.4
	C35.2,41.5,33.8,39.9,32,39.7z"/>
<path class="st2" d="M24.6,46.6c3.8,1.6,8.1,1.6,11.9,0c-1.9-0.9-3.9-1.3-6-1.3C28.5,45.3,26.4,45.8,24.6,46.6z"/>
<path class="st3" d="M42.1,35.3H19c-1.6,0-1.6,3.1,0,3.1h23.2C43.7,38.4,43.7,35.3,42.1,35.3z"/>
<path class="st4" d="M4.8,32.6c0.3,9.1,0,9.7,2.3,9.5s3.5-0.7,3.2-9.8s-1.6-9.6-3.9-9.5S4.4,23.5,4.8,32.6z"/>
<path class="st4" d="M54.8,22.8c-2.3-0.1-3.6,0.3-3.9,9.4s0.8,9.7,3.2,9.8s2-0.4,2.3-9.5S57.2,23,54.8,22.8z"/>
<path d="M59.9,24.9C57.2,8.7,41.9-2.2,25.7,0.4C13,2.5,3.2,12.5,1.2,25.1c-0.9,2.4-1.3,5.1-1.1,7.7c0.2,5.8,2.2,9.5,4.1,9.4
	c2.3-0.1,1.4-0.6,1.1-9.7c-0.1-2.9-0.1-5-0.1-6.4c2-14.1,15.1-23.8,29.2-21.8c11.5,1.7,20.4,10.8,21.8,22.3c0,1.4,0,3.3-0.1,5.8
	c-0.3,9.1-1.3,9.6,1.1,9.7c1.9,0.1,3.9-3.6,4.1-9.4C61.3,30.1,60.9,27.4,59.9,24.9z"/>
<path class="st4" d="M15.9,11.4c3-0.5,6.8-4.5,14.7-4.5s11.7,4,14.7,4.5c1.2,0.2,3.2-1.5,3.2-1.5c-4.7-5-10.3-7.5-17.9-7.5
	S17.4,4.9,12.7,9.9C12.7,9.9,14.7,11.6,15.9,11.4z"/>
</svg>
