<?xml version="1.0" encoding="utf-8"?>
<!-- Generator: Adobe Illustrator 21.0.0, SVG Export Plug-In . SVG Version: 6.00 Build 0)  -->
<!DOCTYPE svg PUBLIC "-//W3C//DTD SVG 1.1 Tiny//EN" "http://www.w3.org/Graphics/SVG/1.1/DTD/svg11-tiny.dtd">
<svg version="1.1" baseProfile="tiny" id="Layer_1" xmlns="http://www.w3.org/2000/svg" xmlns:xlink="http://www.w3.org/1999/xlink"
	 x="0px" y="0px" viewBox="0 0 266 60" xml:space="preserve">
<g>
	<path fill="#5CBB61" d="M34.8,13.5c12,0,21.7,9.7,21.7,21.7S46.6,57,34.7,57S13,47.3,13,35.3l0,0C13.1,23.2,22.8,13.5,34.8,13.5
		L34.8,13.5"/>
	<path d="M49,25.8c0.2,0.1,0.3,0.4,0.2,0.6c-0.1,0.1-0.2,0.2-0.3,0.2c-2.1,0.2-4.1,0.7-6,1.7c2.5,0.4,4.9,1.6,6.5,3.5
		c0.2,0.2,0.1,0.5,0,0.6c-0.1,0.1-0.2,0.1-0.4,0.1c-3.6-1.4-7.6-1.9-11.4-1.5c-0.4,0-0.7-0.2-0.6-0.5C38.1,25.3,44.9,23.3,49,25.8z
		 M20.4,25.8c-0.2,0.1-0.3,0.4-0.2,0.6c0.1,0.1,0.2,0.2,0.3,0.2c2.1,0.2,4.1,0.7,6,1.7c-2.5,0.4-4.9,1.6-6.5,3.5
		c-0.2,0.2-0.1,0.5,0,0.6c0.1,0.1,0.2,0.1,0.4,0.1c3.6-1.4,7.6-1.9,11.5-1.5c0.4,0,0.7-0.2,0.6-0.5C31.3,25.3,24.7,23.3,20.4,25.8z"
		/>
	<path fill="#333333" d="M47.5,36.7c-0.3-0.4-0.8-0.3-1.4-0.3H23.3c-0.6,0-1.1-0.1-1.4,0.3c-2.8,3.6,0.5,14.1,12.8,14.1
		S50.4,40.3,47.5,36.7z"/>
	<path d="M36.1,41.9c-0.5,0-1,0.4-0.8,1.4c0.1,0.6,0.8,1.1,0.8,2c0,0.7-0.7,1.4-1.4,1.4c-0.7,0-1.4-0.7-1.4-1.4c0-0.8,0.7-1.5,0.8-2
		c0.2-1-0.4-1.4-0.8-1.4c-1.7,0.2-3,1.6-3,3.4c0.1,2.4,2.2,4.2,4.6,4.1c2.2-0.1,4-1.9,4.1-4.1C39.1,43.6,37.7,42.1,36.1,41.9z"/>
	<path fill="#F16F7F" d="M29.1,48.4c3.6,1.5,7.6,1.5,11.1,0c-1.8-0.8-3.6-1.2-5.6-1.2C32.8,47.2,30.8,47.6,29.1,48.4z"/>
	<path fill="#FFFFFF" d="M45.5,37.8H23.9c-1.5,0-1.5,2.9,0,2.9h21.7C47,40.7,47,37.8,45.5,37.8z"/>
	<path fill="#979797" d="M10.6,35.3c0.3,8.5,0,9.1,2.2,8.9c2.2-0.2,3.3-0.7,3-9.2c-0.3-8.5-1.5-9-3.6-8.9
		C10,26.2,10.2,26.8,10.6,35.3z"/>
	<path fill="#979797" d="M57.4,26.1c-2.2-0.1-3.4,0.3-3.6,8.8c-0.3,8.5,0.7,9.1,3,9.2c2.2,0.1,1.9-0.4,2.2-8.9S59.6,26.3,57.4,26.1z
		"/>
	<path d="M62.2,28.1c-2.5-15.2-16.8-25.4-32-22.9c-11.9,2-21,11.3-22.9,23.1c-0.8,2.2-1.2,4.8-1,7.2c0.2,5.4,2.1,8.9,3.8,8.8
		c2.2-0.1,1.3-0.6,1-9.1c-0.1-2.7-0.1-4.7-0.1-6C12.9,16,25.1,7,38.3,8.8c10.8,1.6,19.1,10.1,20.4,20.9c0,1.3,0,3.1-0.1,5.4
		c-0.3,8.5-1.2,9,1,9.1c1.8,0.1,3.6-3.4,3.8-8.8C63.5,33,63.1,30.4,62.2,28.1z"/>
	<path fill="#979797" d="M21,15.5c2.8-0.5,6.4-4.2,13.8-4.2s10.9,3.7,13.8,4.2c1.1,0.2,3-1.4,3-1.4c-4.4-4.7-9.6-7-16.7-7
		s-12.3,2.3-16.7,7C18,14.1,19.9,15.7,21,15.5z"/>
</g>
<g>
	<path fill="#231F20" d="M74.8,36.2c0.2,3.2,2.8,5.7,6.1,5.7c2.8,0,4.3-1.4,5.4-2.6l2.5,2.4c-1.4,1.8-4.1,3.5-7.9,3.5
		c-5.5,0-9.7-4.2-9.7-9.8s3.8-9.8,9.2-9.8c5.2,0,9,4.2,9,9.8c0,0.2,0,0.4,0,0.8H74.8z M75.1,33h10.2c-0.6-2.4-2.7-4.1-5-4.1
		C77.9,29,75.7,30.6,75.1,33z"/>
	<path fill="#231F20" d="M96.2,26v1.8c0.8-0.8,3-2.2,5.5-2.2c2.8,0,5.1,1.2,6.6,3.1c1.7-1.7,3.8-3.1,7.2-3.1c2.7,0,5.1,1.2,6.7,3.2
		c1.2,1.4,1.7,3.3,1.7,6.4v9.6h-3.8V34.6c0-1.9-0.4-3-1.1-3.8c-0.8-1-2.1-1.6-3.5-1.6c-2.7,0-4.5,1.4-5.7,2.7c0.2,0.9,0.3,2,0.3,3.3
		v9.6h-3.8V34.6c0-1.9-0.4-3-1.1-3.8c-0.8-1-2.2-1.6-3.6-1.6c-2.3,0-4.2,1.4-5.3,2.7v12.9h-3.8V26H96.2z"/>
	<path fill="#231F20" d="M136.5,25.6c5.6,0,9.7,4.2,9.7,9.8s-4.2,9.8-9.7,9.8s-9.7-4.2-9.7-9.8S130.9,25.6,136.5,25.6z M136.5,41.6
		c3.5,0,5.9-2.8,5.9-6.2c0-3.4-2.4-6.2-5.9-6.2c-3.5,0-5.9,2.8-5.9,6.2C130.5,38.9,133,41.6,136.5,41.6z"/>
	<path fill="#231F20" d="M149.4,26h3.8v20.4c0,2.5-0.4,4.1-1.2,5.3c-1.4,2-3.6,3.1-6.2,3.1c-0.8,0-1.7-0.1-2.2-0.3l0.8-3.5
		c0.3,0.1,0.9,0.2,1.4,0.2c1.1,0,2.2-0.5,2.9-1.3c0.5-0.7,0.7-1.6,0.7-3.4V26z M151.3,16.8c1.4,0,2.5,1.1,2.5,2.5
		c0,1.4-1.1,2.5-2.5,2.5c-1.4,0-2.5-1.1-2.5-2.5C148.8,18,149.9,16.8,151.3,16.8z"/>
	<path fill="#231F20" d="M159.1,16.8c1.4,0,2.5,1.1,2.5,2.5c0,1.4-1.1,2.5-2.5,2.5c-1.4,0-2.5-1.1-2.5-2.5
		C156.6,18,157.7,16.8,159.1,16.8z M157.2,26h3.8v18.8h-3.8V26z"/>
	<path fill="#231F20" d="M178.2,44.8c-0.7,0.2-1.9,0.4-3,0.4c-2.4,0-4.1-0.8-5.3-2.2c-1.1-1.2-1.5-3-1.5-5v-8.6h-4.8V26h4.8v-5.2
		h3.8V26h6v3.4h-6v8.8c0,1,0.1,1.8,0.6,2.4c0.5,0.6,1.6,1,2.6,1c0.6,0,1.5-0.1,2.1-0.2L178.2,44.8z"/>
	<path fill="#231F20" d="M182.7,42.1c-1.2-1.4-1.7-3.3-1.7-6.4V26h3.8v10.2c0,1.9,0.4,3,1.1,3.8c0.8,1,2.2,1.6,3.6,1.6
		c2.3,0,4.2-1.4,5.3-2.7V26h3.8v18.8h-3.7v-1.7c-0.8,0.8-2.9,2.1-5.5,2.1C186.7,45.2,184.3,44,182.7,42.1z"/>
	<path fill="#231F20" d="M207.1,27.8c1-1,2.9-2.2,5.6-2.2c2.8,0,5.2,1.3,6.8,3.3c1.2,1.5,1.8,3.4,1.8,6.7v9.2h-3.8v-9.4
		c0-2.4-0.4-3.5-1.1-4.4c-0.9-1.1-2.3-1.8-3.9-1.8c-2.5,0-4.3,1.3-5.4,2.7v12.9h-3.8V26h3.7V27.8z"/>
	<path fill="#231F20" d="M227.9,36.2c0.2,3.2,2.8,5.7,6.1,5.7c2.8,0,4.3-1.4,5.4-2.6l2.5,2.4c-1.4,1.8-4.1,3.5-7.9,3.5
		c-5.5,0-9.7-4.2-9.7-9.8s3.8-9.8,9.2-9.8c5.2,0,9,4.2,9,9.8c0,0.2,0,0.4,0,0.8H227.9z M228.3,33h10.2c-0.6-2.4-2.7-4.1-5-4.1
		C231.1,29,228.9,30.6,228.3,33z"/>
	<path fill="#231F20" d="M246.8,39.8c1.8,1.4,3.7,2.1,5.6,2.1c1.6,0,3.3-0.9,3.3-2.4c0-2.2-3.1-2.3-5.9-3.2
		c-2.3-0.8-4.3-2.2-4.3-4.8c0-4,3.6-5.9,7-5.9c2.8,0,4.8,0.9,6.2,2.1l-2,2.7c-1.2-0.9-2.5-1.5-4-1.5c-1.8,0-3.4,0.9-3.4,2.4
		c0,1.3,1.5,1.7,3.4,2.2c3,0.8,6.8,2.1,6.8,6c0,3.6-3.3,5.8-7,5.8c-3,0-5.5-0.9-7.6-2.6L246.8,39.8z"/>
</g>
</svg>
