<?xml version="1.0" encoding="UTF-8"?>
<svg width="48px" height="40px" viewBox="0 0 48 40" version="1.1" xmlns="http://www.w3.org/2000/svg" xmlns:xlink="http://www.w3.org/1999/xlink">
    <!-- Generator: Sketch 44.1 (41455) - http://www.bohemiancoding.com/sketch -->
    <title>Reddit</title>
    <desc>Created with Sketch.</desc>
    <defs></defs>
    <g id="Page-1" stroke="none" stroke-width="1" fill="none" fill-rule="evenodd">
        <g id="reddit" fill-rule="nonzero" fill="#FFFFFF">
            <path d="M31.14,26.325803 C29.346,26.325803 27.8385,24.884067 27.8385,23.106421 C27.8385,21.328775 29.346,19.839477 31.14,19.839477 C32.934,19.839477 34.389,21.328775 34.389,23.106421 C34.389,24.884067 32.934,26.325803 31.14,26.325803 M31.902,32.574316 C30.231,34.228597 27.654,35.032699 24.024,35.032699 C24.0165,35.032699 24.0075,35.031213 23.9985,35.031213 C23.991,35.031213 23.982,35.032699 23.973,35.032699 C20.343,35.032699 17.7675,34.228597 16.098,32.574316 C15.585,32.065993 15.585,31.244055 16.098,30.737218 C16.6095,30.23038 17.439,30.23038 17.952,30.737218 C19.104,31.878716 21.0735,32.434602 23.973,32.434602 C23.982,32.434602 23.991,32.436088 23.9985,32.436088 C24.0075,32.436088 24.0165,32.434602 24.024,32.434602 C26.9235,32.434602 28.8945,31.878716 30.048,30.737218 C30.561,30.228894 31.3905,30.23038 31.902,30.737218 C32.4135,31.245541 32.4135,32.067479 31.902,32.574316 M13.611,23.106421 C13.611,21.330262 15.1155,19.839477 16.908,19.839477 C18.702,19.839477 20.157,21.330262 20.157,23.106421 C20.157,24.884067 18.702,26.325803 16.908,26.325803 C15.1155,26.325803 13.611,24.884067 13.611,23.106421 M39.996,2.598098 C41.211,2.598098 42.1995,3.577586 42.1995,4.780024 C42.1995,5.983948 41.211,6.963436 39.996,6.963436 C38.781,6.963436 37.7925,5.983948 37.7925,4.780024 C37.7925,3.577586 38.781,2.598098 39.996,2.598098 M48,19.570452 C48,16.417955 45.4125,13.854043 42.231,13.854043 C40.854,13.854043 39.5895,14.335612 38.5965,15.136742 C35.079,12.945898 30.615,11.62604 25.83,11.346611 L28.326,3.527051 L35.1855,5.127824 C35.3655,7.602556 37.4535,9.561534 39.996,9.561534 C42.6555,9.561534 44.82,7.416766 44.82,4.780024 C44.82,2.144768 42.6555,0 39.996,0 C38.136,0 36.519,1.049346 35.7135,2.581748 L27.7425,0.722354 C27.075,0.56629 26.4,0.94679 26.193,1.594828 L23.094,11.300535 C17.9385,11.425386 13.092,12.749703 9.3165,15.068371 C8.337,14.308859 7.1055,13.854043 5.769,13.854043 C2.5875,13.854043 0,16.417955 0,19.570452 C0,21.519025 0.99,23.241677 2.4975,24.273187 C2.4345,24.726516 2.4015,25.182818 2.4015,25.645065 C2.4015,29.585315 4.713,33.250595 8.91,35.964625 C12.933,38.567182 18.258,40 23.9025,40 C29.547,40 34.872,38.567182 38.895,35.964625 C43.092,33.250595 45.4035,29.585315 45.4035,25.645065 C45.4035,25.224435 45.375,24.806778 45.3225,24.392093 C46.9305,23.376932 48,21.594828 48,19.570452" id="Reddit"></path>
        </g>
    </g>
</svg>