<?xml version="1.0" encoding="UTF-8"?>
<svg width="148px" height="147px" viewBox="0 0 148 147" version="1.1" xmlns="http://www.w3.org/2000/svg" xmlns:xlink="http://www.w3.org/1999/xlink">
    <!-- Generator: Sketch 44.1 (41455) - http://www.bohemiancoding.com/sketch -->
    <title>Group</title>
    <desc>Created with Sketch.</desc>
    <defs></defs>
    <g id="Page-1" stroke="none" stroke-width="1" fill="none" fill-rule="evenodd">
        <g id="slack" transform="translate(0.000000, -3.000000)" fill-rule="nonzero">
            <g id="Group" transform="translate(0.000000, 3.000000)">
                <path d="M12.997,77.78 C7.503,77.822 2.849,74.548 1.133,69.438 C1.06934068,69.2450139 1.0099926,69.0506322 0.955,68.855 C-0.915,62.311 2.711,55.465 9.21,53.273 L113.45,18.35 C114.68771,17.9919361 115.968584,17.8048686 117.257,17.794 C122.897,17.75 127.679,21.096 129.437,26.314 L129.593,26.818 C131.543,33.634 126.698,39.718 120.893,41.668 C120.889,41.671 119.833,42.028 17.231,77.059 C15.8672273,77.5239032 14.4377811,77.7673209 12.997,77.78 Z" id="Shape" fill="#70CADB"></path>
                <path d="M18.469,120.82 C18.404621,120.628389 18.3446055,120.435339 18.289,120.241 C16.393,113.619 20.015,106.701 26.536,104.506 L130.78,69.263 C132.127,68.813 133.518,68.583 134.917,68.57 C140.469,68.528 145.347,71.92 147.068,77.014 L147.228,77.544 C148.235,81.065 147.64,85.022 145.638,88.145 C144.146,90.467 139.44,92.511 139.44,92.511 L34.8,128.29 C33.3728695,128.773134 31.8785792,129.028594 30.372,129.047 C24.835,129.085 20.165,125.857 18.469,120.82 Z" id="Shape" fill="#E01765"></path>
                <path d="M104.893,120.545 L70.103,17.205 L69.929,16.625 C68.044,10.035 71.669,3.161 78.166,0.971 C79.466,0.534 80.81,0.306 82.163,0.294 C84.173,0.279 86.118,0.732 87.95,1.637 C90.9979467,3.14430489 93.3190236,5.80477948 94.399,9.029 L129.186,112.36 L129.287,112.692 C131.241,119.534 127.624,126.412 121.127,128.602 C119.843664,129.030745 118.501003,129.255477 117.148,129.268 C111.604958,129.32123 106.657781,125.799873 104.893,120.545 Z" id="Shape" fill="#E8A723"></path>
                <path d="M53.175,137.944 L18.394,34.608 C17.3055726,31.3882455 17.542685,27.8677652 19.0530391,24.8230446 C20.5633931,21.7783239 23.2229098,19.4594935 26.445,18.378 C27.7302395,17.9483589 29.0749118,17.7229533 30.43,17.71 C35.9739738,17.6552676 40.9225229,21.1770261 42.687,26.433 L77.469,129.773 C78.5579488,132.994311 78.3200577,136.516567 76.8078434,139.562196 C75.2956292,142.607826 72.6334472,144.926374 69.409,146.006 C68.1262581,146.435869 66.7838005,146.660962 65.431,146.673 C59.8887611,146.726832 54.9392454,143.202421 53.175,137.944 Z" id="Shape" fill="#3EB890"></path>
                <polygon id="Shape" fill="#CC2027" points="124.255 97.702 116.325 74.152 92.039 82.359 99.997 105.996"></polygon>
                <polygon id="Shape" fill="#361238" points="72.62 115.357 64.63 91.627 40.35 99.837 48.364 123.65"></polygon>
                <polygon id="Shape" fill="#65863A" points="82.727 54.7 106.987 46.417 99.15 23.142 74.845 31.285"></polygon>
                <polygon id="Shape" fill="#1A937D" points="55.348 64.047 47.415 40.475 23.11 48.617 31.088 72.33"></polygon>
            </g>
        </g>
    </g>
</svg>