<?xml version="1.0" encoding="UTF-8"?>
<svg width="20px" height="16px" viewBox="0 0 20 16" version="1.1" xmlns="http://www.w3.org/2000/svg" xmlns:xlink="http://www.w3.org/1999/xlink">
    <!-- Generator: Sketch 44.1 (41455) - http://www.bohemiancoding.com/sketch -->
    <title>path-1</title>
    <desc>Created with Sketch.</desc>
    <defs></defs>
    <g id="Page-1" stroke="none" stroke-width="1" fill="none" fill-rule="evenodd">
        <g id="twitter" fill-rule="nonzero" fill="#1DA1F2">
            <path d="M6.29,15.8926174 C13.837,15.8926174 17.965,9.7775883 17.965,4.47522336 C17.965,4.30115089 17.965,4.12805635 17.953,3.95593974 C18.756,3.38873729 19.449,2.68462391 20,1.87880526 C19.252,2.20347977 18.457,2.41666965 17.644,2.51055144 C18.5,2.00887065 19.141,1.22065484 19.448,0.29063841 C18.642,0.75809146 17.761,1.08765564 16.842,1.26466192 C15.288,-0.35088712 12.689,-0.42912194 11.036,1.09058945 C9.971,2.07048057 9.518,3.53151584 9.849,4.92507358 C6.55,4.76273633 3.476,3.2391132 1.392,0.73266514 C0.303,2.56629375 0.86,4.91138248 2.663,6.08881653 C2.01,6.07023576 1.371,5.89811916 0.8,5.58713574 L0.8,5.63798838 C0.801,7.54789593 2.178,9.192783 4.092,9.571244 C3.488,9.7326033 2.854,9.7560737 2.24,9.6396994 C2.777,11.2748072 4.318,12.394543 6.073,12.4268149 C4.62,13.543617 2.825,14.1499368 0.977,14.147981 C0.651,14.147003 0.325,14.1284223 0,14.0902828 C1.877,15.2677168 4.06,15.8926174 6.29,15.8896836" id="path-1"></path>
        </g>
    </g>
</svg>